<?xml version="1.0" encoding="UTF-8"?><svg id="Capa_1" xmlns="http://www.w3.org/2000/svg" viewBox="0 0 1370.67 996.85"><defs><style>.cls-1{fill:#e5e5e5;stroke-width:0px;}</style></defs><path class="cls-1" d="m1121.46,0h0C1052.64,0,996.85,55.79,996.85,124.61v248.87C996.85,167.21,829.64,0,623.37,0h-249.89s0,0,0,0C167.21,0,0,167.21,0,373.48v249.89c0,206.27,167.21,373.48,373.48,373.48h249.55c206.45,0,373.82-167.36,373.82-373.82h0s0,373.82,0,373.82h249.21c68.82,0,124.61-55.79,124.61-124.61h0V0h-249.21ZM498.43,622.97c-68.78,0-124.54-55.76-124.54-124.54s55.76-124.54,124.54-124.54,124.54,55.76,124.54,124.54-55.76,124.54-124.54,124.54Z"/></svg>
