<?xml version="1.0" encoding="UTF-8"?><svg id="Capa_1" xmlns="http://www.w3.org/2000/svg" viewBox="0 0 1370.67 996.85"><defs><style>.cls-1{fill:#e5e5e5;stroke-width:0px;}</style></defs><path class="cls-1" d="m1121.46,0h0c0,68.82-55.79,124.61-124.61,124.61h0v248.87c-206.27,0-373.48-167.21-373.48-373.48h-249.89c0,206.27-167.21,373.48-373.48,373.48v249.89c206.27,0,373.48,167.21,373.48,373.48h249.55c0-206.45,167.36-373.82,373.82-373.82h0s0,373.82,0,373.82h249.21c0-68.82,55.79-124.61,124.61-124.61h0V0h-249.21ZM498.43,623.18c-68.78,0-124.54-55.76-124.54-124.54s55.76-124.54,124.54-124.54,124.54,55.76,124.54,124.54-55.76,124.54-124.54,124.54Z"/></svg>