<?xml version="1.0" encoding="UTF-8"?><svg id="Capa_1" xmlns="http://www.w3.org/2000/svg" viewBox="0 0 1370.67 996.85"><defs><style>.cls-1{fill:#e5e5e5;stroke-width:0px;}</style></defs><path class="cls-1" d="m1121.46,0h0c-48.66,48.66-75.94,75.94-124.61,124.61h0v248.87C851,227.63,769.22,145.85,623.37,0h-249.89C227.63,145.85,145.85,227.63,0,373.48v249.89c145.85,145.85,227.63,227.63,373.48,373.48h249.55c145.98-145.99,227.83-227.83,373.82-373.82h0s0,373.82,0,373.82h249.21c48.66-48.66,75.94-75.94,124.61-124.61h0V0h-249.21ZM498.43,622.97c-68.78,0-124.54-55.76-124.54-124.54s55.76-124.54,124.54-124.54,124.54,55.76,124.54,124.54-55.76,124.54-124.54,124.54Z"/></svg>