<?xml version="1.0" encoding="UTF-8"?><svg id="Capa_1" xmlns="http://www.w3.org/2000/svg" viewBox="0 0 872.24 996.85"><defs><style>.cls-1{fill:#e5e5e5;stroke-width:0px;}</style></defs><path class="cls-1" d="m747.7,498.37h-.06l.08-249.21h0c-137.64.03-249.25-111.51-249.29-249.15h-7.53S124.61,0,124.61,0h0c0,68.81-55.8,124.58-124.61,124.54v747.76c68.76.03,124.48,55.78,124.48,124.54h623.28c0-68.76,55.72-124.51,124.48-124.54v-249.4c-68.78,0-124.54-55.76-124.54-124.54Zm-498.43-162.38c0-68.78,55.76-124.54,124.54-124.54s124.54,55.76,124.54,124.54-55.76,124.54-124.54,124.54-124.54-55.76-124.54-124.54Zm186.85,536.26c-68.78,0-124.54-55.76-124.54-124.54s55.76-124.54,124.54-124.54,124.54,55.76,124.54,124.54-55.76,124.54-124.54,124.54Z"/></svg>