<?xml version="1.0" encoding="UTF-8"?><svg id="Capa_1" xmlns="http://www.w3.org/2000/svg" viewBox="0 0 872.24 996.85"><defs><style>.cls-1{fill:#e5e5e5;stroke-width:0px;}</style></defs><path class="cls-1" d="m747.7,498.37h-.06l.08-249.21h0C650.36,151.85,595.78,97.3,498.43,0h-7.53S124.61,0,124.61,0h0C75.94,48.64,48.67,75.9,0,124.55v747.76c48.61,48.63,75.87,75.91,124.48,124.54h623.28c48.61-48.63,75.87-75.91,124.48-124.54v-249.4c-48.64-48.64-75.91-75.91-124.54-124.54Zm-498.43-157.83c0-68.78,55.76-124.54,124.54-124.54s124.54,55.76,124.54,124.54-55.76,124.54-124.54,124.54-124.54-55.76-124.54-124.54Zm186.85,531.71c-68.78,0-124.54-55.76-124.54-124.54s55.76-124.54,124.54-124.54,124.54,55.76,124.54,124.54-55.76,124.54-124.54,124.54Z"/></svg>