<?xml version="1.0" encoding="UTF-8"?><svg id="Capa_1" xmlns="http://www.w3.org/2000/svg" viewBox="0 0 872.24 1000.67"><defs><style>.cls-1{fill:#e5e5e5;stroke-width:0px;}</style></defs><path class="cls-1" d="m747.64,500.3l.08-250.15-.08-250.15-256.74.06H124.61L0,0v1000.61l124.61.06h623.03l124.61-.06v-125.01s0-250.21,0-250.21v-125.08h-124.61Zm-498.36-158.33c0-69.04,55.76-125.01,124.54-125.01s124.54,55.97,124.54,125.01-55.76,125.01-124.54,125.01-124.54-55.97-124.54-125.01Zm186.85,533.62c-68.78,0-124.54-55.97-124.54-125.01s55.76-125.01,124.54-125.01,124.54,55.97,124.54,125.01-55.76,125.01-124.54,125.01Z"/></svg>