<?xml version="1.0" encoding="UTF-8"?><svg id="Capa_1" xmlns="http://www.w3.org/2000/svg" viewBox="0 0 872.24 996.85"><defs><style>.cls-1{fill:#e5e5e5;stroke-width:0px;}</style></defs><path class="cls-1" d="m586.6,586.6c-22.55,22.6-53.73,36.59-88.17,36.59-68.78,0-124.54-55.76-124.54-124.54s55.76-124.54,124.54-124.54c34.28,0,65.33,13.85,87.85,36.26l62.52,62.29,223.29-223.43h0c-137.61,0-249.14-111.6-249.05-249.21h-249.55s0,0,0,0C373.48,206.27,206.27,373.48,0,373.48v248.79s0,1.1,0,1.1c206.27,0,373.48,167.21,373.48,373.48h249.71c0-137.55,111.51-249.05,249.05-249.05v-.16l-223.42-223.42-62.22,62.38Z"/></svg>