<?xml version="1.0" encoding="UTF-8"?><svg id="Capa_1" xmlns="http://www.w3.org/2000/svg" viewBox="0 0 872.24 996.85"><defs><style>.cls-1{fill:#e5e5e5;stroke-width:0px;}</style></defs><path class="cls-1" d="m586.49,586.49c-22.54,22.54-53.67,36.48-88.07,36.48-68.78,0-124.54-55.76-124.54-124.54s55.76-124.54,124.54-124.54c34.37,0,65.49,13.92,88.02,36.44l62.33,62.35,223.31-223.45h0C774.81,151.88,720.31,97.34,623.03,0h-249.55s0,0,0,0C227.63,145.85,145.85,227.63,0,373.48v248.79s0,1.1,0,1.1c145.85,145.85,227.63,227.63,373.48,373.48h249.71c97.26-97.26,151.79-151.79,249.05-249.05v-.16l-223.42-223.42-62.33,62.28Z"/></svg>